<mxfile host="65bd71144e">
    <diagram id="d67qWjIb-X599g4pWSMD" name="Page-1">
        <mxGraphModel dx="304" dy="431" grid="1" gridSize="10" guides="1" tooltips="1" connect="1" arrows="1" fold="1" page="1" pageScale="1" pageWidth="850" pageHeight="1100" math="0" shadow="0">
            <root>
                <mxCell id="0"/>
                <mxCell id="1" parent="0"/>
                <mxCell id="2" value="R &amp;amp; W" style="rounded=0;whiteSpace=wrap;html=1;fillColor=#60a917;fontColor=#ffffff;strokeColor=#000000;fontSize=20;" vertex="1" parent="1">
                    <mxGeometry x="120" y="170" width="120" height="40" as="geometry"/>
                </mxCell>
                <mxCell id="3" value="W" style="rounded=0;whiteSpace=wrap;html=1;fillColor=#e51400;fontColor=#ffffff;strokeColor=#000000;fontSize=20;" vertex="1" parent="1">
                    <mxGeometry x="120" y="130" width="120" height="40" as="geometry"/>
                </mxCell>
                <mxCell id="4" value="W" style="rounded=0;whiteSpace=wrap;html=1;fillColor=#e51400;fontColor=#ffffff;strokeColor=#000000;fontSize=20;" vertex="1" parent="1">
                    <mxGeometry x="120" y="90" width="120" height="40" as="geometry"/>
                </mxCell>
                <mxCell id="5" value="W" style="rounded=0;whiteSpace=wrap;html=1;fillColor=#e51400;fontColor=#ffffff;strokeColor=#000000;fontSize=20;" vertex="1" parent="1">
                    <mxGeometry x="120" y="50" width="120" height="40" as="geometry"/>
                </mxCell>
                <mxCell id="7" value="R" style="rounded=0;whiteSpace=wrap;html=1;fillColor=#1ba1e2;fontColor=#ffffff;strokeColor=#000000;fontSize=20;" vertex="1" parent="1">
                    <mxGeometry x="120" y="290" width="120" height="40" as="geometry"/>
                </mxCell>
                <mxCell id="8" value="R" style="rounded=0;whiteSpace=wrap;html=1;fillColor=#1ba1e2;fontColor=#ffffff;strokeColor=#000000;fontSize=20;" vertex="1" parent="1">
                    <mxGeometry x="120" y="250" width="120" height="40" as="geometry"/>
                </mxCell>
                <mxCell id="9" value="R" style="rounded=0;whiteSpace=wrap;html=1;fillColor=#1ba1e2;fontColor=#ffffff;strokeColor=#000000;fontSize=20;" vertex="1" parent="1">
                    <mxGeometry x="120" y="210" width="120" height="40" as="geometry"/>
                </mxCell>
                <mxCell id="10" value="Security Level" style="text;html=1;strokeColor=none;fillColor=none;align=center;verticalAlign=middle;whiteSpace=wrap;rounded=0;fontSize=20;" vertex="1" parent="1">
                    <mxGeometry x="40" y="190" width="40" height="20" as="geometry"/>
                </mxCell>
                <mxCell id="11" value="" style="endArrow=open;html=1;endFill=0;endSize=30;" edge="1" parent="1">
                    <mxGeometry width="50" height="50" relative="1" as="geometry">
                        <mxPoint x="100" y="310" as="sourcePoint"/>
                        <mxPoint x="100" y="70" as="targetPoint"/>
                    </mxGeometry>
                </mxCell>
                <mxCell id="18" style="edgeStyle=none;html=1;fontSize=40;endArrow=open;endFill=0;endSize=30;" edge="1" parent="1">
                    <mxGeometry relative="1" as="geometry">
                        <mxPoint x="270" y="330" as="targetPoint"/>
                        <mxPoint x="270" y="210" as="sourcePoint"/>
                    </mxGeometry>
                </mxCell>
                <mxCell id="13" value="" style="ellipse;whiteSpace=wrap;html=1;aspect=fixed;fontSize=20;fillColor=#60a917;fontColor=#ffffff;strokeColor=#000000;" vertex="1" parent="1">
                    <mxGeometry x="330" y="165" width="50" height="50" as="geometry"/>
                </mxCell>
                <mxCell id="14" value="..." style="text;html=1;strokeColor=none;fillColor=none;align=center;verticalAlign=middle;whiteSpace=wrap;rounded=0;fontSize=40;fontStyle=1" vertex="1" parent="1">
                    <mxGeometry x="160" y="320" width="40" height="20" as="geometry"/>
                </mxCell>
                <mxCell id="15" value="..." style="text;html=1;strokeColor=none;fillColor=none;align=center;verticalAlign=middle;whiteSpace=wrap;rounded=0;fontSize=40;fontStyle=1" vertex="1" parent="1">
                    <mxGeometry x="160" y="20" width="40" height="20" as="geometry"/>
                </mxCell>
                <mxCell id="19" style="edgeStyle=none;html=1;fontSize=40;endArrow=open;endFill=0;endSize=30;" edge="1" parent="1">
                    <mxGeometry relative="1" as="geometry">
                        <mxPoint x="270" y="50" as="targetPoint"/>
                        <mxPoint x="270" y="170" as="sourcePoint"/>
                    </mxGeometry>
                </mxCell>
                <mxCell id="20" value="Can&lt;br&gt;Write" style="text;html=1;strokeColor=none;fillColor=none;align=center;verticalAlign=middle;whiteSpace=wrap;rounded=0;fontSize=20;" vertex="1" parent="1">
                    <mxGeometry x="300" y="110" width="40" height="20" as="geometry"/>
                </mxCell>
                <mxCell id="21" value="Can&lt;br&gt;Read" style="text;html=1;strokeColor=none;fillColor=none;align=center;verticalAlign=middle;whiteSpace=wrap;rounded=0;fontSize=20;" vertex="1" parent="1">
                    <mxGeometry x="300" y="260" width="40" height="20" as="geometry"/>
                </mxCell>
                <mxCell id="22" value="User/Process" style="text;html=1;strokeColor=none;fillColor=none;align=center;verticalAlign=middle;whiteSpace=wrap;rounded=0;fontSize=20;" vertex="1" parent="1">
                    <mxGeometry x="400" y="180" width="110" height="20" as="geometry"/>
                </mxCell>
            </root>
        </mxGraphModel>
    </diagram>
</mxfile>